<svg xmlns="http://www.w3.org/2000/svg" version="1.1" xmlns:xlink="http://www.w3.org/1999/xlink" xmlns:svgjs="http://svgjs.dev/svgjs" width="308.7612359841165" height="304.915625" viewBox="0 0 1500 1500">
  <g transform="matrix(0.6666666666666666,0,0,0.6666666666666666,248.44244080996884,189.33333333333348)">
    <svg viewBox="0 0 321 360" data-background-color="#ffffff" preserveAspectRatio="xMidYMid meet" height="1682" width="1500" xmlns="http://www.w3.org/2000/svg" xmlns:xlink="http://www.w3.org/1999/xlink">
      <g id="tight-bounds" transform="matrix(1,0,0,1,0.5000234999999975,0)">
        <svg viewBox="0 0 320 360" height="360" width="320">
          <g>
            <svg></svg>
          </g>
          <g>
            <svg viewBox="0 0 320 360" height="360" width="320">
              <g>
                <path transform="translate(-74.99272,-51.79039) scale(4.65793,4.65793)" d="M20.6 59.9l0.8 1-0.4-1.3c-0.1-0.6-0.8 0.1-0.4 0.3M21.5 59.3c0.3 0.5 0.6 1 0.6 1.5 0 0.7 0.6 1 1.1 1.2-0.7-0.8-1.1-3-1.7-2.7M59.9 16.9c1.7 0 3.3-0.2 5.1 0.2 4.4 1.1 8.1 3.3 10.6 6.4l7 11.2c0.3 2.8 0.9 5.9 0.8 9.3 0.7 0 0.6-1 1.4-1.2-0.8 2-1.2 4.5-1.4 7.4-0.5-1.6 0-4 0.1-5.3-0.7 1.1-1.1 0.3-1.1-0.2 0.1-0.8-0.3-0.7-0.6-1-1.1-1-1.8-2.1-2.6-3.8 0.5-1.3 0.6-3.2-1-4.2-0.5-0.3-1.1-0.8-1.4-1.6-0.4-1.1-1.1-2.4-0.9-4.1 0.1-0.5-1.5 1.1-2.4 0.4-3.9-2.7-7.8-5.8-12.5-8.4-2.5 0-4.3-0.9-5.2-2-0.8-1-0.2-2.3 1-2.4 0.7 0 1.5-0.2 2.1 0.2 0.1-0.4 0.5-0.9 1-0.9M50 14.6l0.2 0.1c1 0.2 1.5 1.6 2.6 1.1 0 0.7 0.1 1.4-0.1 1.9-0.3 0.8-1.2 0.8-1.9 0.8-6.7-0.4-10.6 2.4-14.7 4.8-1.1 0.7-2.3 1.2-3.2 2.1-4.3 4-9 7.7-10.1 15.1l-0.9 8.2c-0.1 0.9-1.1 1.8-0.9 2.9l0.7 4.9c-0.7-0.7-1.1 0.2-0.9 0.6 0.1 0.3 0.5 1.3 1.1 0.4 0.8 1.5 1.6 4.4 2.7 5.7 3.4 4 7.8 7.6 11.4 11.2 0.9-0.2 1.6-0.2 1.8-0.8 0.3 0.6-0.3 1.2-0.8 1.3 1.6 1 3.4 1.9 5.8 2.1 3.1 0.2 6 0.7 8.7 1.4 1.4-0.4 2.8-0.6 4.3-0.7 0.5 0 0.8-0.8 1.4-1l0.1-1c0.6 0.9 0.5-0.3 0.1-0.9 0.7 0.6 0.9 1.1 1.2 1.5 0-0.3 0.8-1.4 0.8-0.1l0.2-1.3c0.3-0.2 0.4 1.1 0.7 0.2 0.3-0.9 0.9-0.2 1.5-0.5-0.2 0.4-0.1 1.2 0.6 0.7l0.8-0.7c0.5 1.2 1.3 0.7 1.7 0.5 4.4-2.8 8.8-6.1 13-9.4l-0.1 1.3 0.5-1.6c0.5 0.5 0.9 0.1 1.1-0.2 0.6-1 1.4-2 2.7-2.9-1.6 4.3-3.5 7.7-5.9 10.5l-1 1.2c0 0.7-0.2 1.6-1 1.7-0.4 0.1-1.2-0.2-1.8 0.4-0.3 0.4 0.7 1.2-0.1 0.6-0.7-0.5-1.4 0-2.2 0.2-0.6 0.2 0.4 0.8 0.6 1.2 0.2 0.4 0.4 0.8 0.3 1.3l-1.1-1.2c-1.3 0.7-2.1 2-3.2 3-0.5 0.4-0.3 1.1-0.3 1.7-0.7 0-1.5-0.2-1.9 0.2-0.3 0.4-0.2 1-0.2 1.6-1-0.1-1.1-1.6-2-1.3-0.9 0.2-1.9 0.3-2.7 0.8 0.6 1.2-1 0.5-0.8 0.7-1.5-0.9-2.8-1.6-4.4-1-3.4-1.1-7.6-0.6-10.7-0.2 0-0.5 0.1-1-0.1-1.1-0.2 0.5-0.8 0.3-0.7 0.3-1.9-1.3-3.8-2.1-5.8-3.2-1.8 0.2-3.5-0.7-4-1.2-1.4-1.3-3-0.6-4.3-0.9-2.8-0.7-3.8-3.6-4.1-5.6-0.2-1-1-1.4-1.3-1.3-1.3-4.2-3.3-8-4.9-11.9-0.4-1-0.3-2-0.3-3.1 0.5 0.2 1 0.1 0.9-0.6-0.5-3.3-1.7-5.8-3-8.2 0.7-3.4 0.8-7.4 2.4-10.4 1.4-2.7 4-4.1 5.8-6.4 0.6-0.8 0.6-1.9 1.2-2.6 2-2 4-4.1 6.2-5.9 1-0.8 2.2 0 3.7-0.3 0.5-1.8 2.5-3.4 4.4-2.9 0.8 0.2 2.4-1.9 2.9-2.1 0.8-0.3 0.4 0.8 0.4 1.5 1.9-1.5 4.5-2.3 6.9-3.2" fill="#e12c17" fill-rule="nonzero" stroke="none" stroke-width="1" stroke-linecap="butt" stroke-linejoin="miter" stroke-miterlimit="10" stroke-dasharray="" stroke-dashoffset="0" font-family="none" font-weight="none" font-size="none" text-anchor="none" style="mix-blend-mode: normal" data-fill-palette-color="tertiary"></path>
              </g>
              <g transform="matrix(1,0,0,1,116.75563660477454,90)">
                <svg viewBox="0 0 86.48872679045094 180" height="180" width="86.48872679045094">
                  <g>
                    <svg viewBox="0 0 179.89655172413794 374.4" height="180" width="86.48872679045094">
                      <g transform="matrix(1,0,0,1,0,194.4)">
                        <svg viewBox="0 0 179.89655172413794 180" height="180" width="179.89655172413794">
                          <g id="textblocktransform">
                            <svg viewBox="0 0 179.89655172413794 180" height="180" width="179.89655172413794" id="textblock">
                              <g>
                                <svg viewBox="0 0 179.89655172413794 180" height="180" width="179.89655172413794">
                                  <g transform="matrix(1,0,0,1,0,0)">
                                    <svg width="179.89655172413794" viewBox="-0.639969141975 -34.4 34.779969125075 34.8" height="180" data-palette-color="#e71010">
                                      <path d="M7.7-10.55L5.25-3.65 6.05-3.35 8.5-10.25Q8.5-10.25 8.5-10.25 8.5-10.25 8.5-10.25L8.5-10.25 15.6-29.85Q15.65-29.95 15.38-29.78 15.1-29.6 15.2-29.6L15.2-29.6 18-29.6Q18.1-29.6 17.82-29.78 17.55-29.95 17.6-29.85L17.6-29.85 24.75-10.25Q24.8-10.25 24.78-10.25 24.75-10.25 24.75-10.25L24.75-10.25 27.1-3.35 27.9-3.65 25.55-10.55Q25.55-10.55 25.55-10.55 25.55-10.55 25.55-10.55L25.55-10.55 18.4-30.15Q18.25-30.4 18-30.4L18-30.4 15.2-30.4Q14.95-30.4 14.8-30.15L14.8-30.15 7.7-10.55Q7.7-10.55 7.7-10.55 7.7-10.55 7.7-10.55L7.7-10.55ZM8.1-10L25.15-10 25.15-10.8 8.1-10.8 8.1-10ZM15.55-30.2L13.25-34.2 12.55-33.8 14.85-29.8Q14.85-29.75 14.83-29.85 14.8-29.95 14.8-29.9L14.8-29.9 16-24.05Q16.1-23.75 16.4-23.75 16.7-23.75 16.8-24.05L16.8-24.05 18.4-29.9Q18.4-29.95 18.35-29.85 18.3-29.75 18.35-29.8L18.35-29.8 20.95-33.8 20.25-34.2 17.65-30.2Q17.65-30.2 17.65-30.18 17.65-30.15 17.6-30.1L17.6-30.1 16-24.25Q15.95-23.95 16.43-23.93 16.9-23.9 16.8-24.25L16.8-24.25 15.6-30.1Q15.6-30.1 15.58-30.13 15.55-30.15 15.55-30.2L15.55-30.2ZM8.35-10.05L12.8-13.2 12.3-13.9 7.85-10.75Q7.75-10.65 7.73-10.48 7.7-10.3 7.8-10.15L7.8-10.15 10.2-7.05 10.8-7.55 8.4-10.65Q8.35-10.75 8.28-10.38 8.2-10 8.35-10.05L8.35-10.05ZM25.35-10.75L20.45-13.9 20.05-13.2 24.95-10.05Q25.1-10 25.03-10.4 24.95-10.8 24.85-10.65L24.85-10.65 22-7.55 22.6-7.05 25.45-10.15Q25.55-10.25 25.55-10.45 25.55-10.65 25.35-10.75L25.35-10.75ZM5.4-3.2L9.75 0.3 10.25-0.3 5.9-3.8Q5.8-3.9 5.68-3.93 5.55-3.95 5.45-3.85L5.45-3.85-0.45-0.35-0.05 0.35 5.85-3.15Q5.95-3.25 5.63-3.28 5.3-3.3 5.4-3.2L5.4-3.2ZM27.3-3.15L33.55 0.35 33.95-0.35 27.7-3.85Q27.6-3.95 27.48-3.93 27.35-3.9 27.25-3.8L27.25-3.8 22.55-0.3 23.05 0.3 27.75-3.2Q27.85-3.25 27.53-3.25 27.2-3.25 27.3-3.15L27.3-3.15ZM10.9-7.2L10.5-6.9 22.3-6.9 21.9-7.2Q22.5-5.15 22.7-3.88 22.9-2.6 22.83-1.75 22.75-0.9 22.45-0.15L22.45-0.15Q22.4 0.05 22.5 0.23 22.6 0.4 22.8 0.4L22.8 0.4 33.75 0.4Q34 0.4 34.1 0.18 34.2-0.05 34.05-0.25L34.05-0.25Q33.5-1 32.93-2.05 32.35-3.1 31.58-4.93 30.8-6.75 29.6-9.8 28.4-12.85 26.6-17.6L26.6-17.6Q24.95-22.05 23.9-24.95 22.85-27.85 22.28-29.58 21.7-31.3 21.43-32.33 21.15-33.35 21-34.05L21-34.05Q20.95-34.2 20.85-34.3 20.75-34.4 20.6-34.4L20.6-34.4 12.9-34.4Q12.75-34.4 12.63-34.3 12.5-34.2 12.5-34L12.5-34Q12.45-33.25 12.18-32.18 11.9-31.1 11.25-29.33 10.6-27.55 9.55-24.7 8.5-21.85 6.9-17.6L6.9-17.6Q5.1-12.85 3.9-9.8 2.7-6.75 1.93-4.93 1.15-3.1 0.58-2.05 0-1-0.55-0.25L-0.55-0.25Q-0.7-0.05-0.6 0.18-0.5 0.4-0.25 0.4L-0.25 0.4 10 0.4Q10.25 0.4 10.35 0.23 10.45 0.05 10.35-0.15L10.35-0.15Q10.1-0.9 10-1.75 9.9-2.6 10.13-3.88 10.35-5.15 10.9-7.2L10.9-7.2ZM16.8-24L16-24 19.85-13.4 20.25-13.95 12.55-13.95 12.95-13.4 16.8-24ZM22.3-7.7L10.5-7.7Q10.35-7.7 10.25-7.63 10.15-7.55 10.1-7.4L10.1-7.4Q9.5-5.2 9.3-3.83 9.1-2.45 9.22-1.55 9.35-0.65 9.65 0.15L9.65 0.15 10-0.4-0.25-0.4 0.05 0.25Q0.65-0.5 1.23-1.58 1.8-2.65 2.6-4.5 3.4-6.35 4.6-9.43 5.8-12.5 7.6-17.3L7.6-17.3Q9.25-21.65 10.33-24.55 11.4-27.45 12.05-29.25 12.7-31.05 12.98-32.15 13.25-33.25 13.3-34L13.3-34 12.9-33.6 20.6-33.6 20.2-33.95Q20.35-33.2 20.63-32.18 20.9-31.15 21.48-29.38 22.05-27.6 23.13-24.7 24.2-21.8 25.9-17.3L25.9-17.3Q27.7-12.5 28.9-9.43 30.1-6.35 30.9-4.5 31.7-2.65 32.27-1.58 32.85-0.5 33.45 0.25L33.45 0.25 33.75-0.4 22.8-0.4 23.15 0.15Q23.5-0.65 23.6-1.55 23.7-2.45 23.5-3.83 23.3-5.2 22.7-7.4L22.7-7.4Q22.65-7.55 22.55-7.63 22.45-7.7 22.3-7.7L22.3-7.7ZM20.65-13.7L16.8-24.3Q16.7-24.55 16.4-24.55 16.1-24.55 16-24.3L16-24.3 12.15-13.7Q12.1-13.5 12.23-13.33 12.35-13.15 12.55-13.15L12.55-13.15 20.25-13.15Q20.5-13.15 20.6-13.33 20.7-13.5 20.65-13.7L20.65-13.7Z" opacity="1" transform="matrix(1,0,0,1,0,0)" fill="#e71010" class="css-1j8o68" data-fill-palette-color="primary" id="text-0"></path>
                                    </svg>
                                  </g>
                                </svg>
                              </g>
                            </svg>
                          </g>
                        </svg>
                      </g>
                      <g transform="matrix(1,0,0,1,37.73149374622217,0)">
                        <svg viewBox="0 0 104.4335642316936 180" height="180" width="104.4335642316936">
                          <g>
                            <svg xmlns="http://www.w3.org/2000/svg" xmlns:xlink="http://www.w3.org/1999/xlink" version="1.1" x="0" y="0" viewBox="21.679106830508616 1 56.85827385947762 98" enable-background="new 0 0 100 100" xml:space="preserve" height="180" width="104.4335642316936" class="icon-icon-0" data-fill-palette-color="accent" id="icon-0">
                              <g fill="#e07575" data-fill-palette-color="accent">
                                <path fill-rule="evenodd" clip-rule="evenodd" d="M30.545 28.822C29.38 36.039 30.875 43.672 37.045 47.863 30.758 19.81 45.756 8.664 59.646 1 43.466 24.046 76.542 24.644 78.423 51.13 80.028 73.71 64.507 91.317 46.639 99 46.845 76.175 24.089 73.067 21.801 54.397 20.905 47.094 25.062 33.766 30.545 28.822" fill="#e07575" data-fill-palette-color="accent"></path>
                              </g>
                            </svg>
                          </g>
                        </svg>
                      </g>
                      <g></g>
                    </svg>
                  </g>
                </svg>
              </g>
            </svg>
          </g>
          <defs></defs>
        </svg>
        <rect width="320" height="360" fill="none" stroke="none" visibility="hidden"></rect>
      </g>
    </svg>
  </g>
</svg>